# xmcd
#
# Track frame offsets:
#	150
#	2277
#	23963
#	38451
#	50830
#	72243
#	84164
#	99121
#	111524
#	123682
#	137310
#	155415
#	168250
#	187192
#	208002
#
# Disc length: 2867 seconds
#
# Revision: 1
# Processed by: cddbd v1.4PL0 Copyright (c) Steve Scherf et al.
# Submitted via: audiograbber 1.81.01
#
DISCID=bd0b310f
DTITLE=Franke - unflexible
DYEAR=1999
DGENRE=
TTITLE0=Bide
TTITLE1=Three days lost
TTITLE2=i stay in the kitchen
TTITLE3=No Love
TTITLE4=Going for a drink
TTITLE5=Love in mind
TTITLE6=Touch me
TTITLE7=Revolution
TTITLE8=My Baby
TTITLE9=Hard Live
TTITLE10=My Baby part2
TTITLE11=Herd instinct
TTITLE12=Yes,No
TTITLE13=Flying
TTITLE14=My Baby part3
EXTD=
EXTT0=
EXTT1=
EXTT2=
EXTT3=
EXTT4=
EXTT5=
EXTT6=
EXTT7=
EXTT8=
EXTT9=
EXTT10=
EXTT11=
EXTT12=
EXTT13=
EXTT14=
PLAYORDER=
